<?xml version="1.0" encoding="UTF-8"?>
<svg id="Layer_1" xmlns="http://www.w3.org/2000/svg" version="1.1" xmlns:xlink="http://www.w3.org/1999/xlink" viewBox="0 0 663.83 349.28">
  <!-- Generator: Adobe Illustrator 30.0.0, SVG Export Plug-In . SVG Version: 2.1.1 Build 123)  -->
  <defs>
    <style>
      .st0 {
        fill: url(#linear-gradient2);
      }

      .st1 {
        fill: url(#linear-gradient1);
      }

      .st2 {
        fill: url(#linear-gradient4);
      }

      .st3 {
        fill: url(#linear-gradient5);
      }

      .st4 {
        fill: url(#linear-gradient3);
      }

      .st5 {
        fill: #353535;
      }

      .st6 {
        fill: url(#linear-gradient);
      }
    </style>
    <linearGradient id="linear-gradient" x1="204.8" y1="155.46" x2="258.44" y2="51.59" gradientUnits="userSpaceOnUse">
      <stop offset="0" stop-color="#6b4d2f"/>
      <stop offset=".5" stop-color="#ab6c3b"/>
      <stop offset="1" stop-color="#e8a972"/>
    </linearGradient>
    <linearGradient id="linear-gradient1" x1="149.2" y1="252.74" x2="364.89" y2="7.53" gradientUnits="userSpaceOnUse">
      <stop offset="0" stop-color="#94784a"/>
      <stop offset=".51" stop-color="#c4a260"/>
      <stop offset=".54" stop-color="#b79556"/>
    </linearGradient>
    <linearGradient id="linear-gradient2" x1="105.13" y1="250.24" x2="320.82" y2="5.03" gradientUnits="userSpaceOnUse">
      <stop offset="0" stop-color="#94784a"/>
      <stop offset=".3" stop-color="#a0824e"/>
      <stop offset=".38" stop-color="#b79556"/>
      <stop offset="1" stop-color="#c4a260"/>
    </linearGradient>
    <linearGradient id="linear-gradient3" x1="148.64" y1="288.51" x2="364.33" y2="43.3" gradientUnits="userSpaceOnUse">
      <stop offset="0" stop-color="#94784a"/>
      <stop offset=".64" stop-color="#b79556"/>
      <stop offset="1" stop-color="#c4a260"/>
    </linearGradient>
    <linearGradient id="linear-gradient4" x1="139.99" y1="280.9" x2="355.68" y2="35.7" gradientUnits="userSpaceOnUse">
      <stop offset="0" stop-color="#94784a"/>
      <stop offset=".5" stop-color="#b79556"/>
      <stop offset="1" stop-color="#c4a260"/>
    </linearGradient>
    <linearGradient id="linear-gradient5" x1="172.52" y1="216.15" x2="335.93" y2="56.83" xlink:href="#linear-gradient"/>
  </defs>
  <path class="st6" d="M264.88,76.53s-16.15,13.81-24.95,24.94c-.9,1.13-1.71,2.23-2.43,3.29,0,0,.16-1.62.57-4.1.62-3.79,1.83-9.57,3.98-14.63,3.55-8.37,5.1-9.65,5.67-16.6,0,0-4.32,10.34-10.21,20.08-.81,1.34-3.07,6.67-3.88,9.42-1.04,3.53-2.05,7.85-3.19,11.73-.62,2.1-1.28,4.08-2.01,5.74-3.12,7.1-12.26,23.15-14.47,28.1,0,0-3.19-18.4.61-38.23.74-3.9,1.76-7.85,3.12-11.73,1.18-3.35,2.61-6.64,4.36-9.79,14.05-25.4,45.12-57.18,45.12-57.18,0,0,1.85,36.33-2.27,48.95Z"/>
  <path class="st1" d="M302.63,197.48c0,57.89-46.93,104.82-104.82,104.82s-104.82-46.93-104.82-104.82,46.93-104.82,104.82-104.82c4.03,0,8.03.23,11.94.69-.9,2.85-2.06,6.98-2.98,11.85-2.95-.29-5.94-.43-8.96-.43-51.2,0-92.7,41.52-92.7,92.71s41.51,92.7,92.7,92.7,92.71-41.51,92.71-92.7c0-13.88-3.06-27.06-8.54-38.87l9.67-7.85c7.03,14.06,10.97,29.93,10.97,46.72Z"/>
  <path class="st0" d="M212.46,149.94l-2.33,13.86c-7.15-7.08-16.92-11.16-27.7-11.16h-33.24v84.38h13.59c1.39,2.87,4.03,7.75,7.69,11.93h-33.21v-108.23h44.46c11.46,0,22.06,3.31,30.73,9.23Z"/>
  <path class="st4" d="M234.7,193.69v1.8c0,.63-.01,1.26-.03,1.89v.13c-.02.47-.04.92-.08,1.39-.01.2-.02.4-.04.6-.01.23-.03.47-.06.7-.13,1.62-.36,3.23-.63,4.81-.06.27-.1.53-.16.8-.07.36-.14.71-.22,1.07-.08.4-.17.79-.27,1.18-.06.24-.11.49-.18.72-.12.48-.26.96-.39,1.43-.2.72-.42,1.42-.66,2.13-.19.56-.38,1.1-.58,1.65-.09.23-.17.47-.27.7-.09.23-.19.47-.28.7-.4,1.02-.84,2.03-1.32,3.02-.21.44-.43.89-.66,1.32-.67,1.33-1.4,2.63-2.19,3.9-.24.39-.49.78-.74,1.16-.27.42-.56.83-.84,1.24l-.4.57c-.77,1.08-1.58,2.13-2.45,3.15-.42.52-.87,1.03-1.32,1.53-.02.03-.04.06-.07.08-.36.39-.7.76-1.06,1.12t-.01.01c-.14.16-.3.31-.46.47-.81.83-1.65,1.63-2.51,2.39-.18.17-.37.33-.54.49-.41.36-.82.71-1.24,1.04-.28.23-.57.47-.87.69t-.02.01c-.04.06-.1.1-.14.12-.27.22-.53.42-.8.61-.11.09-.21.17-.32.23-.26.21-.52.39-.78.57-.03.03-.07.06-.1.07-.34.26-.69.49-1.04.72-.47.32-.94.63-1.42.93-.02.01-.04.02-.07.03-.26.16-.51.31-.77.47s-.51.31-.77.46c-.52.3-1.04.59-1.57.87h-.01c-6.68-1.49-11.05-4.78-13.49-7.19,16.82-4.92,29.16-21.02,29.16-40.14v-1.4c0-4.28-.54-8.33-1.56-12.09l12.58-2.03c1.08,4.36,1.65,8.99,1.65,13.87Z"/>
  <path class="st2" d="M261.19,171.18v47.11c0,24.35-19.73,44.08-44.08,44.08h-4.82c-12.82,0-24.45-5.11-32.97-13.43-3.56-3.47-6.57-7.49-8.89-11.93-3.41-6.54-5.35-13.97-5.35-21.85v-54.58h12.68v55.9c0,7.64,2.48,14.72,6.66,20.45,3,4.11,6.88,7.54,11.37,10,4.95,2.72,10.64,4.27,16.68,4.27h2.93c18.92,0,34.25-15.33,34.25-34.25v-41.82l11.54-3.97Z"/>
  <path class="st3" d="M354.28,32.5s-7.19,29.14-16.27,45.97c-9.08,16.84-13.06,22.71-28,28.96-14.95,6.23-27.81,11.34-27.81,11.34,0,0,16.06,3.03,31.2-4.14-.21.47-7.29,15.36-20.27,21.36-2.53,1.17-5.34,2.21-8.23,3.15-4.18,1.35-8.52,2.48-12.45,3.35-7.63,1.73-13.67,2.58-13.67,2.58l15.92.59,9.48.36s-1.82,2.33-5.75,5.66c-7.55,6.39-22.86,16.45-47.86,20.55-.48.08-.96.15-1.45.23,0,0,.34-.49.95-1.38,3.7-5.41,17.77-25.7,31.08-41.29,1.79-2.1,3.57-4.12,5.3-6,.88-.96,1.81-1.97,2.79-3.01,17.31-18.57,48.51-50.41,49.54-51.46-.95.72-30.31,23.16-54.24,47.33-2.89,2.91-5.7,5.86-8.37,8.79-.76.83-1.49,1.65-2.21,2.46-9.85,11.14-19.43,23.85-27.76,36.06-2.76,4.03-5.38,8.02-7.84,11.88-9,14.15-15.68,26.52-18.33,33.37l-10.17,9.69s10.41-31.23,24.89-49.57c.89-1.14,1.81-2.23,2.74-3.26,0,0,.44-4.1,1.99-10.35,2.37-9.56,7.34-24.16,17.3-36.76,1.11-1.41,2.19-2.75,3.23-4.04,2.89-3.63,5.48-6.82,7.77-9.61,9.02-10.97,13.41-15.67,13.41-15.67l-1.7,19.49,13.82-28.38s14.37-17.03,80.97-48.25Z"/>
  <path class="st5" d="M355.84,156.71h-30.51c-.16,0,1.69,1.27,3.39,2.42,1.7,1.16,2.71,3.08,2.71,5.14v41.67c0,1.61-.76,3.12-2.06,4.09l-4.05,3.01h30.58c12.66,0,22.92-10.26,22.92-22.92v-10.43c0-12.69-10.29-22.99-22.99-22.99ZM369.89,191.11c0,9.92-8.04,17.95-17.95,17.95h-11.14s.28-48.39,0-48.39h10.07c10.5,0,19.02,8.51,19.02,19.02v11.42Z"/>
  <path class="st5" d="M416.15,213.04l.28-6.6c-.5,1.85-2.12,4.48-3.69,5.4-2.48,1.45-4.4,1.92-6.31,1.92h-5.89c-6.35,0-11.49-5.15-11.49-11.49v-23.5c0-1-.54-1.92-1.42-2.4l-3.26-1.21.05-1.71,14.42-.99v29.43c0,3.96,3.21,7.17,7.17,7.17h2.48c3.92,0,7.1-3.18,7.1-7.1v-21.74c0-.52-.09-1.03-.26-1.51-.5-1.42-1.87-2.36-3.37-2.51l-1.28-.13-.02-2.52,13.3-1.09v34.17c0,1.51.8,2.91,2.11,3.67l2.99,1.75-12.91,1Z"/>
  <path class="st5" d="M432.89,156.04h22.33v2.79l-4.12.33c-1.28,0-2.32,1.04-2.32,2.32v46.07c0,1.44,1.16,2.6,2.6,2.6l3.83.47v3.13h-22.33v-3.13l3.55-.47c1.44,0,2.6-1.16,2.6-2.6v-45.69c0-1.28-1.04-2.32-2.32-2.32l-3.83-.33v-3.17Z"/>
  <path class="st5" d="M459,175.98l.12-1.39c2.31-.34,9.23-.88,12.58-2.13v7.23s4.68-7.23,15.33-7.23,12.63,8.44,12.63,11.14v25.33s1.87,2.22,4.47,2.22v2.13h-18.16v-2.18s3.74-.57,4.64-1.47v-26.16c0-6.43-11.73-10.97-17.5-.09v26.68s2.03,1.42,4.49,1.42v1.8h-18.59v-2.27s3.69.28,4.87-.9v-31.34l-4.87-2.79Z"/>
  <path class="st5" d="M546.83,228.69v-55.81h-1.42l-5.81,3.06c-3.69-3.39-17.55-6.7-25.63,1.39-7.5,7.5-5.78,15.92-5.78,21.1,0,7.61,8.57,16.55,17.08,16.55s12.58-5.39,12.58-5.39v19.25c-1.11,1.11-6.48,1.57-6.48,1.57v2.08h20.2v-2.03c-2.28,0-4.74-1.76-4.74-1.76ZM537.85,206.04s-2.89,3.59-9.41,3.59-11.16-6.05-11.16-17.92,6.52-15.52,12.72-15.52,7.86,4.11,7.86,4.11v25.73Z"/>
  <path class="st5" d="M599.91,211.16l-4.01-1.24c-1.1-.43-1.82-1.48-1.82-2.66v-55.1l-3.9,1.11c-1.93.56-3.9,1.01-5.88,1.37l-4.4.79,3.72,2.01c1.02.54,1.67,1.62,1.67,2.79v15.96c-1.9-1.89-3.55-3.89-11.03-3.89s-19.25,4.75-19.25,21.72,9.37,20.49,18.41,20.49,12.57-7,12.57-7v6.52c4.43,0,11.48-1.32,13.9-2.01v-.86ZM585,204.86s-3.78,5.29-9.17,5.29-11.55-5.77-11.55-17.28,6.15-16.67,11.64-16.67,9.08,4.35,9.08,4.35v24.32Z"/>
</svg>