<svg width="584" height="490" viewBox="0 0 584 490" fill="none" xmlns="http://www.w3.org/2000/svg">
<g clip-path="url(#clip0_3793_39824)">
<g clip-path="url(#clip1_3793_39824)">
<path d="M265.312 155C218.045 157.726 0.180925 206.905 4.05092 450.808C8.06696 704.021 237.687 742.906 336.116 728.34C499.995 704.094 591.025 598.319 580.121 405.805C569.216 213.267 443.795 144.682 265.312 155Z" fill="#EDECF4" fill-opacity="0.8"/>
<mask id="mask0_3793_39824" style="mask-type:alpha" maskUnits="userSpaceOnUse" x="4" y="154" width="577" height="577">
<path d="M265.312 155C218.045 157.726 0.180925 206.905 4.05092 450.808C8.06696 704.021 237.687 742.906 336.116 728.34C499.995 704.094 591.025 598.319 580.121 405.805C569.216 213.267 443.795 144.682 265.312 155Z" fill="#EDECF4" fill-opacity="0.8"/>
</mask>
<g mask="url(#mask0_3793_39824)">
<g opacity="0.7">
<path d="M327.157 125.379C327.157 125.379 326.732 251.53 409.151 353.437C413.844 357.108 436.987 344.918 436.987 344.918C436.987 344.918 436.29 379.524 438.569 385.193C452.223 398.082 467.578 410.272 484.803 421.404L491.315 542.347L552.071 541.972C552.071 541.972 602.013 484.607 596.588 411.604C591.164 338.601 578.921 79.6245 327.157 125.379Z" fill="#DFDDEC"/>
<path d="M478 416H597.539C597.539 416 598.997 434.836 596.727 443H487.896L478 416Z" fill="#CFCEE0"/>
<path d="M539.896 435.454C539.896 435.454 501.229 467.585 511.891 517.13L539.896 435.454Z" fill="#CFCEE0"/>
<path d="M492.591 200.891C492.591 203.384 483.902 344.32 562.155 420.413L492.591 200.891Z" fill="#CFCEE0"/>
<path d="M410.308 162.939C410.308 162.939 419.626 328.818 524.593 419.867L410.308 162.939Z" fill="#CFCEE0"/>
<path d="M564.671 436.12C564.671 436.12 535.084 489.865 564.671 526.127V436.12Z" fill="#CFCEE0"/>
<path d="M555.523 232.237C555.523 232.237 544.709 358.268 580.145 416.162L555.523 232.237Z" fill="#CFCEE0"/>
</g>
<g opacity="0.7">
<path d="M228 135.12C228 135.12 228.405 255.193 149.956 352.191C145.489 355.685 123.461 344.082 123.461 344.082C123.461 344.082 124.125 377.021 121.956 382.416C108.96 394.685 94.3446 406.288 77.9492 416.883L71.7504 532L13.9215 531.642C13.9215 531.642 -33.6137 477.042 -28.4507 407.556C-23.2877 338.07 -11.6345 91.5695 228 135.12Z" fill="#DFDDEC"/>
<path d="M84.4348 411.504H-8.43449C-8.43449 411.504 -9.56747 429.314 -7.80331 437.033H76.747L84.4348 411.504Z" fill="#CFCEE0"/>
<path d="M25.51 430.257C25.51 430.257 62.3146 460.84 52.1666 507.998L25.51 430.257Z" fill="#CFCEE0"/>
<path d="M70.5365 206.994C70.5365 209.367 78.807 343.513 4.32372 415.94L70.5365 206.994Z" fill="#CFCEE0"/>
<path d="M148.856 170.87C148.856 170.87 139.986 328.758 40.0765 415.42L148.856 170.87Z" fill="#CFCEE0"/>
<path d="M1.92843 430.89C1.92843 430.89 30.0903 482.046 1.92843 516.562V430.89Z" fill="#CFCEE0"/>
<path d="M10.636 236.83C10.636 236.83 20.9296 356.789 -12.7998 411.894L10.636 236.83Z" fill="#CFCEE0"/>
</g>
</g>
<path d="M239.064 267.272C239.064 267.272 189.136 299.122 188.779 323.756C188.478 344.092 208.724 428.141 208.724 428.141L264.113 442.842L319.13 427.401C319.13 427.401 386.058 360.33 380.524 341.573C374.991 322.831 299.786 267.842 299.786 267.842L239.064 267.272Z" fill="#5A66FF"/>
<path d="M238.291 224.892C238.706 226.528 239.077 267.272 239.077 267.272C239.077 267.272 250.759 288.178 270.146 288.178C289.534 288.178 299.785 267.841 299.785 267.841L301.787 229.46L238.291 224.892Z" fill="#FBBB9D"/>
<path d="M312.396 157.052C312.939 157.863 319.359 184.39 306.348 210.305C293.323 236.22 297.669 165.22 297.669 165.22" fill="#543732"/>
<path d="M238.117 225.518L301.399 233.003C301.399 233.003 302.428 228.008 301.127 240.773C287.43 266.29 256.718 270.118 238.889 251.518L238.117 225.518Z" fill="#E59E85"/>
<path d="M232.072 168.451C232.115 170.286 239.907 187.748 238.263 214.446C236.619 241.143 242.481 252.329 273.335 252.286C303.174 252.244 306.749 227.183 306.749 204.996C306.749 182.81 307.578 133.542 275.808 139.704C244.039 145.866 231.672 151.615 232.072 168.451Z" fill="#FBBB9D"/>
<path d="M229.027 179.793C229.027 179.793 232.559 227.04 238.249 226.77C243.94 226.499 240.966 177.089 240.966 177.089L229.027 179.793Z" fill="#543732"/>
<path d="M230.328 192.985C230.328 192.985 213.556 171.169 223.522 154.191C230.742 141.895 243.667 144.969 243.667 144.969C243.667 144.969 290.664 115.511 312.839 132.104C336.788 150.021 315.827 170.614 301.987 172.506C288.147 174.399 255.062 164.95 255.062 164.95C255.062 164.95 245.526 195.675 230.328 192.985Z" fill="#543732"/>
<path d="M249.742 183.565C248.899 184.148 249.285 185.486 250.314 185.586C254.532 186.013 264.712 186.795 264.855 184.618C264.998 182.284 253.603 180.875 249.742 183.565Z" fill="#543732"/>
<path d="M361.053 305.838L358.522 302.394C367.215 296.09 376.137 280.692 376.38 263.458C376.523 252.941 373.42 237.87 357.75 225.816C332.844 206.647 325.08 188.787 331.771 166.131C333.616 159.869 335.918 154.205 337.862 149.509C335.288 148.498 333.373 146.734 332.257 144.343C329.77 138.992 332 133.783 335.103 131.222C337.991 128.845 341.665 128.575 344.439 130.553C348.428 133.385 346.927 138.594 343.824 146.264C343.881 146.264 343.939 146.264 343.981 146.264C350.129 146.264 357.65 143.247 360.695 141.127L363.155 144.628C359.494 147.175 349.929 151.145 342.094 150.448C340.035 155.386 337.748 160.965 335.875 167.326C331.557 181.927 331.085 199.901 360.352 222.443C377.424 235.579 380.812 252.044 380.641 263.529C380.398 283.011 370.318 299.121 361.053 305.838ZM340.35 133.47C339.263 133.47 338.32 134.125 337.862 134.495C335.975 136.046 334.645 139.234 336.175 142.536C336.833 143.944 337.919 144.926 339.506 145.538C341.794 139.96 343.524 135.121 341.965 134.011C341.422 133.613 340.865 133.47 340.35 133.47Z" fill="#E2BFBF"/>
<path d="M279.727 184.19C279.813 181.344 297.184 182.639 296.841 185.656C296.541 188.261 279.641 187.037 279.727 184.19Z" fill="#543732"/>
<path d="M274.551 202.819C275.266 203.815 279.054 207.899 277.839 211.087C276.424 214.801 270.347 216.708 267.502 216.694C269.632 215.285 271.934 213.649 272.563 211.172C273.007 209.436 272.921 207.743 272.549 205.978C272.077 203.801 270.762 198.72 270.619 197.809C270.462 196.756 271.205 196.087 271.791 197.496C272.606 199.432 273.235 200.997 274.551 202.819Z" fill="#EFA689"/>
<path d="M260.68 223.768C260.523 223.511 269.23 229.844 280.725 223.668C280.725 223.668 270.96 239.763 260.68 223.768Z" fill="#D17D62"/>
<path d="M105.851 228.834L161.769 240.262C161.769 240.262 137.72 317.024 148.043 318.263C177.639 321.806 220.103 281.091 220.103 281.091L174.137 352.787C174.137 352.787 140.58 365.538 123.18 359.405C87.7215 346.91 105.851 228.834 105.851 228.834Z" fill="#4759DD"/>
<path d="M66.2598 295.905C66.2598 297 73.3228 402.055 110.254 399.109C147.184 396.163 191.121 342.497 191.121 342.497L195.939 309.424C195.939 309.424 134.617 359.774 121.692 354.992C108.767 350.211 102.49 286.626 102.49 286.626L66.2598 295.905Z" fill="#4759DD"/>
<path d="M157.054 238.768C157.269 237.985 169.293 223.113 174.669 217.763C176.985 215.457 182.733 209.466 189.453 202.421C196.645 194.893 200.09 189.784 204.565 186.112C205.938 184.974 205.766 182.854 204.237 181.943C200.991 180.007 194.886 178.584 185.621 185.216C170.952 195.704 164.732 204.67 162.53 200.159C161.53 198.095 152.794 186.397 145.902 174.201C143.114 169.263 139.297 164.609 136.166 160.254C130.103 151.801 128.102 148.357 123.383 150.805C118.408 153.395 120.981 158.575 125.442 167.669C130.432 177.844 136.266 188.176 136.266 188.176C136.266 188.176 125.8 173.404 120.796 176.307C115.777 179.21 121.096 188.347 121.096 188.347C121.096 188.347 116.106 183.366 112.817 186.169C109.529 188.959 115.277 196.373 115.277 196.373C115.277 196.373 108.786 191.449 106.784 196.829C104.782 202.208 114.976 211.359 120.624 218.474C124.656 223.555 126.629 233.232 126.629 233.232L157.054 238.768Z" fill="#FBBB9D"/>
<path d="M116.49 213.565C116.49 213.565 119.335 215.5 123.425 213.551C127.499 211.601 123.11 205.524 123.11 205.524C123.11 205.524 127.228 208.911 130.802 207.09C134.377 205.282 131.603 199.362 131.603 199.362C131.603 199.362 135.091 202.123 138.208 200.316C141.325 198.508 139.252 193.428 139.252 193.428C139.252 193.428 154.265 200.472 138.795 213.707C133.462 218.261 125.684 224.181 116.49 213.565Z" fill="#EFA689"/>
<path d="M179.071 212.141C170.636 209.921 165.603 201.282 167.833 192.9C170.064 184.504 178.742 179.495 187.164 181.715C195.599 183.935 200.632 192.573 198.402 200.955C196.171 209.337 187.493 214.361 179.071 212.141ZM185.176 189.115C180.858 187.976 176.412 190.552 175.268 194.85C174.124 199.148 176.712 203.574 181.03 204.712C185.348 205.851 189.794 203.275 190.938 198.977C192.096 194.679 189.509 190.253 185.176 189.115Z" fill="#43464C"/>
<path d="M413.384 202.251C413.384 202.251 413.269 287.111 393.024 296.276C370.934 306.281 326.568 282.586 326.568 282.586C326.568 282.586 328.47 330.388 330.357 330.388C332.259 330.388 441.779 376.426 441.779 376.426C441.779 376.426 460.723 263.9 462.954 228.337C445.282 218.289 413.384 202.251 413.384 202.251Z" fill="#4759DD"/>
<path d="M425.504 410.282C482.18 422.264 514.721 279.298 514.721 279.298L474.073 261.054C474.073 261.054 447.765 352.29 439.801 356.26C431.838 360.231 360.893 307.077 360.893 307.077" fill="#4759DD"/>
<path d="M138.72 198.536C130.385 196.345 125.395 187.792 127.596 179.495C129.798 171.198 138.377 166.217 146.727 168.423C155.062 170.615 160.052 179.168 157.85 187.464C155.648 195.775 147.07 200.742 138.72 198.536ZM144.754 175.852C140.522 174.742 136.175 177.261 135.046 181.473C133.916 185.686 136.461 190.012 140.693 191.136C144.925 192.26 149.272 189.727 150.401 185.515C151.516 181.288 148.986 176.962 144.754 175.852Z" fill="#43464C"/>
<path d="M155.126 193.199L178.845 153.209C178.845 153.209 194.759 141.113 199.505 126.369C201.007 121.687 200.463 116.194 198.662 110.672C198.462 110.046 197.618 109.947 197.304 110.516C193.958 116.649 185.322 135.847 175.972 148.513C164.376 164.21 154.711 177.288 154.711 177.288L155.126 193.199Z" fill="#43464C"/>
<path d="M183.219 106.289C184.02 105.819 185.021 106.488 184.878 107.399C183.691 115.041 179.745 140.757 179.43 144.528C179.059 148.954 177.7 183.45 177.7 183.45L168.078 192.43L173.568 151.487C173.583 151.487 163.117 118.201 183.219 106.289Z" fill="#43464C"/>
<path d="M178.985 153.203C179.396 151.751 178.546 150.242 177.086 149.833C175.627 149.424 174.111 150.271 173.7 151.723C173.29 153.176 174.14 154.685 175.6 155.093C177.059 155.502 178.575 154.656 178.985 153.203Z" fill="#6E737A"/>
<path d="M351.774 327.001L367.559 395.197C367.559 395.197 337.291 418.109 353.89 436.61C360.124 443.554 412.954 468.374 432.141 450.058C466.141 417.597 412.611 343.239 353.99 300.047C331.572 283.525 310.797 271.927 300.088 267.43C283.174 291.125 344.239 373.025 344.239 373.025L392.079 355.008" fill="#5A66FF"/>
<path d="M190.292 182.512C190.292 182.512 179.755 189.812 178.797 191.107C177.825 192.402 183.029 199.205 183.029 199.205L188.676 202.677L199.986 190.382L197.398 186.425L190.292 182.512Z" fill="#FBBB9D"/>
<path d="M128.443 173.403L135.621 186.894L148.574 178.754L139.939 165.391L128.443 173.403Z" fill="#FBBB9D"/>
<path d="M197.443 193.1C197.443 193.1 194.412 191.634 195.641 188.759C196.871 185.885 203.305 181.587 203.305 181.587C203.305 181.587 204.706 181.573 205.492 183.736C206.436 186.297 197.443 193.1 197.443 193.1Z" fill="#FFCCB8"/>
<path d="M230.154 387.312C230.154 387.312 218.401 402.753 200.386 406.453L196.111 417.938C196.111 417.938 48.5738 444.621 64.9875 500.422C84.3894 566.383 255.418 508.078 255.418 508.078C255.418 508.078 404.314 556.108 428.391 511.65C454.398 463.634 319.142 427.387 319.142 427.387C319.142 427.387 307.79 410.168 305.002 394.4" fill="#FF6F43"/>
<path d="M220.092 281.077C220.092 282.571 222.022 333.234 222.022 333.234L235.905 331.313L231.659 272.339L220.092 281.077Z" fill="#FF6F43"/>
<path d="M304.82 269.521L300.33 323.244L313.613 323.643L317.53 276.224L304.82 269.521Z" fill="#FF6F43"/>
<path d="M221.705 322.091C223.078 322.091 313.61 322.717 313.61 322.717L304.774 394.414L222.048 397.502L221.705 322.091Z" fill="#FF6F43"/>
<path d="M249.987 450.342L335.816 470.878C335.959 470.906 336.102 470.977 336.231 471.063L352.744 482.547C353.86 483.316 355.203 481.978 354.431 480.868L347.068 470.294C346.482 469.44 347.168 468.302 348.198 468.402L365.198 470.237C366.527 470.38 367.071 468.572 365.884 467.96L347.082 458.34C347.011 458.312 346.939 458.283 346.868 458.255L272.963 436.296C272.663 436.211 272.334 436.239 272.048 436.381L249.701 448.108C248.715 448.62 248.9 450.086 249.987 450.342Z" fill="#ED6343"/>
<path d="M176.069 457.515L126.084 476.172C125.97 476.215 125.855 476.243 125.741 476.243L100.749 477.567C99.462 477.638 99.2332 479.431 100.463 479.815L118.578 485.437C119.307 485.664 119.622 486.504 119.207 487.144L112.401 497.86C111.758 498.871 112.916 500.066 113.96 499.469L133.762 488.055C133.862 487.998 133.977 487.956 134.091 487.927L207.781 471.22C208.896 470.964 208.996 469.427 207.924 469.028L176.869 457.515C176.612 457.416 176.326 457.416 176.069 457.515Z" fill="#ED6343"/>
<path d="M41.3716 249.383C29.9049 247.391 23.6425 248.757 23.7998 254.378C24.0142 262.276 37.9973 261.038 42.0007 261.792C41.8291 257.637 41.6146 253.51 41.3716 249.383Z" fill="#EFA689"/>
<path d="M246.484 379.628L246.942 455.978C246.956 458.739 249.258 460.944 252.018 460.859L369.258 457.515C372.003 457.444 374.148 455.152 374.048 452.42L371.274 376.07C371.174 373.366 368.901 371.26 366.199 371.331L251.274 374.675C248.586 374.761 246.47 376.952 246.484 379.628Z" fill="#AA693D"/>
<path d="M304.018 460.091C303.617 460.091 303.303 459.778 303.303 459.379C303.303 427.615 303.374 374.177 303.903 373.138C304.075 372.783 304.518 372.64 304.861 372.825C305.176 372.982 305.333 373.352 305.219 373.665C304.818 376.155 304.732 436.325 304.732 459.379C304.732 459.778 304.404 460.091 304.018 460.091Z" fill="#563620"/>
<path d="M247.213 415.233C246.827 415.233 246.498 414.92 246.498 414.536C246.498 414.137 246.798 413.824 247.199 413.81L372.289 411.562C372.689 411.59 373.004 411.86 373.018 412.259C373.018 412.657 372.718 412.97 372.317 412.985L247.213 415.233C247.227 415.233 247.213 415.233 247.213 415.233Z" fill="#563620"/>
<path d="M257.652 448.918V454.611L285.09 454.326V448.235L257.652 448.918Z" fill="#563620"/>
<path d="M261.211 446.272C261.282 445.973 261.625 428.127 261.625 428.127L257.779 428.896L263.927 420.243L269.375 428.896L265.643 427.9L265.343 446.158L261.211 446.272Z" fill="#563620"/>
<path d="M275.123 445.532L279.499 445.603L279.427 428.654L282.687 429.138L277.239 419.773L272.035 429.081L275.509 428.497L275.123 445.532Z" fill="#563620"/>
<path d="M304.303 373.664C304.189 373.664 304.075 373.636 303.975 373.579C303.932 373.579 303.889 373.579 303.832 373.579C303.574 373.565 303.346 373.394 303.245 373.166C300.429 371.572 291.478 366.108 291.407 361.426C291.378 359.946 292.208 358.722 293.838 357.768C295.539 356.786 297.126 356.658 298.556 357.413C301.887 359.134 303.46 365.353 304.146 369.352C305.562 364.784 308.378 357.228 311.795 356.288C312.553 356.075 313.711 356.089 314.912 357.299C315.956 358.352 316.414 359.618 316.271 361.07C315.87 364.927 311.052 369.239 307.964 371.644L325.178 368.499C325.564 368.442 325.936 368.684 326.007 369.068C326.079 369.452 325.821 369.822 325.435 369.893L305.133 373.607C304.975 373.636 304.832 373.608 304.689 373.551C304.561 373.622 304.432 373.664 304.303 373.664ZM312.539 357.612C312.396 357.612 312.267 357.64 312.167 357.669C309.107 358.494 306.019 367.716 304.818 372.17C306.262 371.188 314.369 365.453 314.841 360.928C314.941 359.917 314.641 359.049 313.897 358.309C313.34 357.754 312.896 357.612 312.539 357.612ZM296.611 358.366C295.968 358.366 295.296 358.579 294.552 359.006C293.38 359.69 292.822 360.472 292.837 361.411C292.88 364.628 299.171 369.082 303.017 371.387C302.488 367.374 300.958 360.259 297.898 358.679C297.483 358.466 297.055 358.366 296.611 358.366Z" fill="#563620"/>
<path d="M60.1721 286.726L65.934 296.73L95.7446 288.704L83.706 251.546C83.2914 250.265 82.9339 248.985 82.6194 247.675C80.9037 240.531 74.9558 220.551 73.3545 211.5C72.9685 209.294 70.352 208.269 68.5791 209.664C65.1762 212.325 63.2747 218.886 63.4176 224.108C63.6321 231.494 66.6775 248.444 66.6775 248.444C66.6775 248.444 64.5757 249.596 59.3428 249.355C59.7574 256.456 52.5943 274.259 60.1721 286.726Z" fill="#FBBB9D"/>
<path d="M58.1557 257.681C58.5846 257.681 79.2304 271.57 63.4172 287.438C47.6183 303.306 54.3096 261.367 54.3096 261.367" fill="#EFA689"/>
<path d="M27.6464 247.207C27.6464 247.207 30.8348 262.32 22.4993 274.232C21.9416 275.043 20.6978 276.822 22.5993 278.16C24.0148 279.156 25.9736 277.42 26.6742 276.594C31.135 271.257 36.0963 261.039 35.3671 249.27C34.7809 239.792 27.6464 247.207 27.6464 247.207Z" fill="#6B8280"/>
<path d="M67.9204 296.844C59.8851 283.609 58.4554 263.088 58.9987 262.177L51.4638 262.504L42.4992 261.949C43.0568 262.86 43.5 283.794 35.765 297.2C30.1746 306.877 25.6995 311.929 25.5422 320.596C25.2419 337.26 38.3243 341.715 50.6489 341.572C63.4166 341.43 77.0995 338.442 77.5856 320.397C77.8001 312.327 73.711 306.393 67.9204 296.844Z" fill="#43464C"/>
<path d="M65.3186 236.845L28.1304 237.172L27.5156 248.159L36.18 249.738C38.2246 250.08 40.6695 252.2 41.1413 254.207L41.4272 262.219C41.4415 263.201 42.2565 263.998 43.243 263.984L57.9124 263.756C58.8847 263.742 59.6996 262.973 60.0428 262.077L60.2143 251.759C60.2572 250.251 61.9587 249.283 63.4313 249.112L65.0184 248.941C68.0923 248.6 70.7517 245.811 70.9233 242.737C71.1235 239.449 68.5928 236.816 65.3186 236.845Z" fill="white"/>
<path d="M27.5448 237.174C24.6567 237.203 22.2833 239.451 22.126 242.326C21.9687 245.101 23.9275 247.549 26.687 248.004L27.5305 248.147L28.1453 237.16L27.5448 237.174Z" fill="#6B8280"/>
<path d="M219.945 281.519C219.945 281.519 78.8274 387.156 110.497 434.162C142.166 481.167 216.028 341.104 216.028 341.104L219.945 281.519Z" fill="#5A66FF"/>
<path d="M23.711 256.215C22.5528 252.927 23.4965 248.188 27.5713 248.26C29.9733 248.302 32.9329 248.53 36.1785 249.64C44.7857 252.557 41.7689 261.779 34.7344 261.139C30.9456 260.797 25.3123 260.769 23.711 256.215Z" fill="#FBBB9D"/>
<path d="M41.9999 261.779C41.285 261.751 33.9503 261.537 34.1648 266.803C34.3792 272.068 44.9166 271.029 47.8762 270.247C50.8358 269.478 53.295 262.135 41.9999 261.779Z" fill="#FBBB9D"/>
<path d="M40.698 269.222C40.698 269.222 33.5635 268.496 32.9201 273.335C32.2767 278.174 49.3338 282.116 50.4061 276.423C51.4784 270.731 40.698 269.222 40.698 269.222Z" fill="#FBBB9D"/>
<path d="M39.582 277.362C39.582 277.362 33.7486 277.248 33.863 281.447C33.9774 285.631 45.6442 288.818 46.9167 284.99C48.418 280.479 42.2843 277.149 39.582 277.362Z" fill="#FBBB9D"/>
<path d="M180.029 331.312C180.029 331.312 93.3712 405.869 114.16 439.369C134.949 472.869 246.928 396.248 246.928 396.248L219.634 362.848L180.029 331.312Z" fill="#5A66FF"/>
<path d="M222.004 309.253L246.996 340.676L257.834 330.287L232.427 300.644" fill="#B56523"/>
<path d="M234.63 354.409C235.559 350.495 236.589 328.893 236.832 328.195C236.832 328.195 241.064 332.621 244.681 336.293C247.684 339.338 255.032 333.262 256.276 328.409C256.62 327.043 256.105 321.934 256.105 321.934L262.31 324.524C264.469 325.42 266.156 327.142 267.014 329.305L269.487 335.496L271.661 336.15C275.206 337.218 277.923 340.078 278.795 343.665L279.596 346.98L280.711 347.607C283.628 349.243 285.315 352.431 285.029 355.747C284.657 360.101 283.013 364.257 280.296 367.701L279.767 368.37C275.45 373.835 269.587 377.89 262.925 380.011L240.106 388.35L229.211 357.526L234.63 354.409Z" fill="#FBBB9D"/>
<path d="M256.277 328.409C253.904 325.548 249.186 320.511 247.127 318.077C251.774 314.989 261.267 309.012 262.711 308.827C264.427 308.613 270.218 314.519 256.378 328.324C256.335 328.352 256.306 328.38 256.277 328.409Z" fill="#FBBB9D"/>
<path d="M206.707 362.82C206.707 362.82 234.988 354.21 234.645 354.424C234.301 354.637 250.372 395.438 250.372 395.438L230.598 406.638L206.707 362.82Z" fill="#5A66FF"/>
<path d="M132.933 450.214C132.933 450.214 130.616 443.468 136.85 441.689C142.698 440.024 150.59 442.671 152.549 442.486C154.522 442.315 132.933 450.214 132.933 450.214Z" fill="#EDA58A"/>
<path d="M211.555 470.366C211.555 470.366 167.832 462.24 152.934 461.158C138.036 460.076 135.491 461.642 133.347 458.568C130.902 455.081 129.172 446.955 143.627 443.953C145.9 443.483 147.759 443.241 149.246 443.127C152.391 442.899 155.408 441.861 157.924 439.982C162.986 436.182 172.107 431.756 181.83 432.425C194.683 433.308 199.845 433.976 207.937 430.689C216.201 427.331 225.952 417.838 235.946 420.428C248.171 423.602 246.856 449.602 246.856 449.602L211.555 470.366Z" fill="#FBBB9D"/>
<path d="M145.985 460.574C145.985 460.574 144.441 454.412 132.145 456.404C132.145 456.404 133.06 460.489 136.977 460.66C140.88 460.845 145.985 460.574 145.985 460.574Z" fill="#FFE9E1"/>
<path d="M215.461 318.717L247.731 292.575C248.932 291.593 248.489 289.672 246.973 289.33L231.432 285.73C229.53 285.288 227.514 285.658 225.898 286.754L202.236 302.679C199.92 304.23 199.519 307.461 201.364 309.538L209.084 318.205C210.743 320.041 213.545 320.269 215.461 318.717Z" fill="#3A3632"/>
<path d="M221.493 358.082L136.551 397.346L188.537 349.913L221.493 358.082Z" fill="#4759DD"/>
<path d="M413.556 203.033C413.556 203.033 402.346 187.763 396.313 176.549C393.911 172.08 395.569 166.459 400.059 164.096C406.607 160.653 412.012 159.542 412.012 159.542C412.012 159.542 411.082 115.369 420.504 116.095C428.74 116.735 428.053 153.935 428.053 153.935C428.053 153.935 429.798 145.582 436.074 147.816C442.437 150.079 440.85 161.037 440.85 161.037C440.85 161.037 443.795 153.736 448.37 155.458C454.69 157.835 451.788 170.401 451.788 170.401C451.788 170.401 455.877 165.135 460.495 168.537C464.813 171.71 461.21 181.786 456.749 193.142C452.288 204.499 446.955 219.555 446.955 219.555L413.556 203.033Z" fill="#FBBB9D"/>
<path d="M411.967 159.529C411.967 159.529 424.806 153.936 425.921 160.468C427.051 167.014 413.568 173.874 413.568 173.874C413.568 173.874 418.958 186.952 429.367 189.926C442.02 193.541 455.989 188.404 459.993 184.49C451.972 187.635 448.054 181.174 449.755 176.08C449.755 176.08 436.359 183.636 438.103 173.703C438.103 173.703 431.683 180.406 428.481 177.218C425.278 174.03 427.523 159.657 427.523 159.657L427.923 151.019L411.967 159.529Z" fill="#EFA689"/>
<path d="M535.986 122.329C536.443 119.739 538.187 117.832 540.404 116.707C534.127 109.265 522.789 102.476 522.789 102.476C522.789 102.476 494.451 100.882 489.504 109.136C494.451 121.574 521.388 128.548 540.446 130.213C540.675 128.235 535.642 124.307 535.986 122.329Z" fill="#6E737A"/>
<path d="M483.711 265.593L478.835 234.597C478.835 234.597 473.502 216.552 476.891 210.547C480.093 204.883 491.617 197.611 499.953 197.426C500.825 197.411 501.526 198.109 501.454 198.963C500.854 207.231 489.673 209.038 489.673 215.428C489.673 222.188 492.747 233.317 502.927 232.192C513.107 231.068 528.276 205.224 523.015 203.118C518.568 201.339 512.921 199.674 513.979 194.224C514.079 193.683 514.551 193.284 515.108 193.313C517.882 193.441 522.843 193.868 529.563 195.134C538.942 196.885 534.61 209.294 529.706 222.06C529.706 222.06 544.404 187.535 548.937 190.168C553.455 192.8 548.565 206.306 548.565 206.306C548.565 206.306 552.711 201.425 556.1 205.552C559.488 209.679 550.981 222.8 550.981 222.8C550.981 222.8 557.529 216.695 560.818 221.405C565.836 228.592 512.377 277.974 512.377 277.974L483.711 265.593Z" fill="#FBBB9D"/>
<path d="M542.662 130.155C542.662 130.155 528.765 120.307 520.987 116.222C509.006 109.932 498.426 107.513 489.504 109.42C492.392 98.1062 511.05 84.6151 532.883 90.2933C558.461 96.925 542.662 130.155 542.662 130.155Z" fill="#D2D1E0"/>
<path d="M534.282 124.277L512.007 173.418L485.47 240.617C484.841 242.197 485.456 244.004 486.914 244.886C488.73 245.982 491.089 245.242 491.961 243.321L542.704 129.998L534.282 124.277ZM489.045 242.581C488.258 242.581 487.629 241.94 487.629 241.172C487.629 240.404 488.272 239.763 489.045 239.763C489.831 239.763 490.46 240.404 490.46 241.172C490.46 241.94 489.831 242.581 489.045 242.581Z" fill="#D2D1E0"/>
<path d="M534.281 124.278C534.281 124.278 495.305 97.3672 489.501 109.136C483.739 120.834 527.847 129.814 531.55 130.284" fill="#6E737A"/>
<path d="M373.992 125.803L411.166 103.844L397.383 67.4836L420.602 53.4375C420.602 53.4375 447.996 81.0744 450.484 100.642C449.326 100.728 435.286 101.98 420.516 115.542L381.884 138.212C378.481 140.347 374.006 139.365 371.804 136.021C369.531 132.591 370.532 127.994 373.992 125.803Z" fill="#FFB031"/>
<path d="M450.47 100.64C450.613 101.821 450.699 102.974 450.656 104.084C450.341 112.366 439.661 118.116 430.382 119.012C425.049 119.524 420.502 115.54 420.502 115.54C435.271 101.977 449.326 100.711 450.47 100.64Z" fill="#6E737A"/>
<path d="M420.559 53.3213C420.559 53.3213 423.447 68.7906 414.94 71.7649C406.433 74.7392 397.383 67.4955 397.383 67.4955L420.559 53.3213Z" fill="#43464C"/>
<path d="M413.984 57.2354C413.984 57.2354 420.018 67.3822 419.732 67.4675C419.446 67.5529 418.688 69.1041 418.688 69.1041L412.654 58.2458L413.984 57.2354Z" fill="#6E737A"/>
<path d="M408.09 60.8359L414.939 71.7655L412.923 72.1497L406.432 61.8321L408.09 60.8359Z" fill="#6E737A"/>
<path d="M421.117 56.751L399.842 69.2175L402.473 70.4698L421.017 58.8145L421.117 56.751Z" fill="#6E737A"/>
<path d="M370.529 132.333L359.563 141.171C358.605 141.939 358.362 143.305 359.005 144.344C359.692 145.468 361.15 145.867 362.308 145.226L374.676 138.509L370.529 132.333Z" fill="#43464C"/>
<path d="M371.689 382.245L414.082 420.356L372.547 408.217L371.689 382.245Z" fill="#4759DD"/>
<path d="M358.162 371.543L336.616 350.04L336.158 372.354L358.162 371.543Z" fill="#4759DD"/>
<path d="M363.511 413.854C363.511 413.854 347.469 391.938 336.703 383.627C330.14 378.56 327.252 376.155 322.348 373.693C320.146 375.743 319.903 381.649 327.653 387.256C334.258 392.037 337.961 399.523 337.961 399.523C337.961 399.523 322.477 392.322 309.266 386.914C300.616 383.385 292.58 379.841 291.094 382.716C289.678 385.463 297.928 389.703 305.677 393.93C312.84 397.844 322.034 403.394 322.034 403.394C322.034 403.394 304.548 398.484 293.224 393.617C287.776 391.283 282.915 392.379 282.401 393.674C281.829 395.111 285.003 397.516 289.592 400.149C299.472 405.799 315.957 412.445 315.957 412.445C315.957 412.445 305.734 410.438 296.069 408.161C290.164 406.781 284.216 405.756 283.544 408.716C283.03 411.022 287.805 413.654 293.824 415.789C303.89 419.361 318.659 424.698 317.787 424.499C316.944 424.299 309.337 424.057 302.389 423.047C299.029 422.563 293.41 422.15 293.009 424.641C292.852 425.594 299.1 428.014 303.132 429.209C315.914 432.995 350.629 436.652 350.629 436.652C350.629 436.652 356.234 432.311 359.651 426.263C362.81 420.713 363.511 413.854 363.511 413.854Z" fill="#FBBB9D"/>
<path d="M439.146 439.399C424.705 466.296 398.755 462.752 337.732 446.514L354.26 397.645L413.982 420.841" fill="#5A66FF"/>
<path d="M255.404 508.091L211.553 470.379C211.553 470.379 177.396 476.214 178.354 476.854C179.297 477.48 240.591 513.016 240.591 513.016L255.404 508.091Z" fill="#ED6343"/>
<path d="M234.489 77.5856C235.418 74.099 237.934 71.2528 241.294 69.9008L254.62 64.9199L248.143 102.433L267.774 102.561L227.697 103.088L234.489 77.5856Z" fill="#D3DDDC"/>
<path d="M254.636 64.8052L276.096 56.8926C277.011 56.5511 277.998 56.5226 278.942 56.7788L301.46 63.1686C307.323 64.6059 311.769 69.3591 312.799 75.2651L317.445 101.906L267.775 102.56L248.145 102.432L254.636 64.8052Z" fill="white"/>
<path d="M275.666 66.371C274.136 66.0864 269.547 66.2002 269.547 66.2002L269.418 78.5813L276.023 78.8233C276.023 78.8233 281.056 78.1686 281.428 73.1166C281.8 68.0645 277.182 66.6556 275.666 66.371ZM275.509 74.9097L273.478 75.0378L273.536 70.1565C273.536 70.1565 274.694 70.1849 275.423 70.3273C276.152 70.4696 277.482 70.9961 277.439 72.7039C277.425 74.4116 275.509 74.9097 275.509 74.9097Z" fill="#000200"/>
<path d="M289.908 66.272C286.176 66.1724 283.073 69.104 282.973 72.8325C282.873 76.5469 285.833 79.6493 289.564 79.7489C293.296 79.8485 296.399 76.9169 296.499 73.1883C296.599 69.4598 293.639 66.3716 289.908 66.272ZM289.493 75.5365C288.092 75.4938 286.977 74.341 287.019 72.9322C287.048 71.5375 288.22 70.4275 289.622 70.4702C291.023 70.5129 292.138 71.6656 292.095 73.0745C292.052 74.4691 290.894 75.5649 289.493 75.5365Z" fill="#000200"/>
<path d="M269.276 81.6406C269.276 81.6406 273.493 84.6861 282.186 84.8569C290.879 85.0276 294.311 82.2526 294.311 82.2526L294.196 86.7638C294.196 86.7638 287.863 90.4355 281.615 90.1508C275.381 89.8662 269.047 85.9669 269.047 85.9669L269.276 81.6406Z" fill="#FC484C"/>
<path d="M325.792 106.204L338.831 102.575C342.534 100.027 340.947 94.2639 336.458 93.9366L299.398 90.5638C297.354 90.4215 295.295 90.7772 293.422 91.6027L246.74 102.859L325.792 106.204Z" fill="#AEBAB9"/>
<path d="M289.704 197.953C290.459 195.787 289.303 193.42 287.146 192.662C285.189 191.982 283.079 192.879 282.154 194.658C283.079 194.256 284.126 194.178 285.159 194.534C287.316 195.292 288.456 197.644 287.716 199.825C287.639 200.026 287.547 200.211 287.454 200.397C288.456 199.948 289.303 199.098 289.704 197.953Z" fill="white"/>
<path d="M285.142 194.533C284.125 194.177 283.062 194.255 282.138 194.657C282.045 194.843 281.937 195.028 281.876 195.229C281.121 197.395 282.276 199.762 284.433 200.52C285.45 200.875 286.513 200.798 287.438 200.396C287.53 200.21 287.638 200.025 287.7 199.824C288.439 197.658 287.299 195.291 285.142 194.533Z" fill="#262120"/>
<path d="M262.815 197.094C263.57 194.929 262.414 192.562 260.257 191.804C258.301 191.123 256.19 192.02 255.266 193.799C256.19 193.397 257.238 193.32 258.27 193.676C260.427 194.434 261.567 196.785 260.828 198.966C260.751 199.167 260.658 199.353 260.566 199.539C261.582 199.09 262.43 198.239 262.815 197.094Z" fill="white"/>
<path d="M258.269 193.675C257.252 193.319 256.189 193.396 255.265 193.798C255.172 193.984 255.064 194.17 255.003 194.371C254.248 196.536 255.403 198.903 257.56 199.661C258.577 200.017 259.64 199.94 260.565 199.537C260.657 199.352 260.765 199.166 260.827 198.965C261.566 196.799 260.426 194.433 258.269 193.675Z" fill="#262120"/>
</g>
</g>
<defs>
<clipPath id="clip0_3793_39824">
<rect width="584" height="490" fill="white"/>
</clipPath>
<clipPath id="clip1_3793_39824">
<rect width="584" height="584" fill="white"/>
</clipPath>
</defs>
</svg>
