<svg xmlns="http://www.w3.org/2000/svg" fill="none" viewBox="0 0 352 184"><mask id="a" width="343" height="184" x="6" y="0" maskUnits="userSpaceOnUse" style="mask-type:alpha"><path fill="#ECF0FF" d="M6 0h343v184H6V0Z"/></mask><g mask="url(#a)"><path fill="#D1EEBA" d="M186.2 40C97.2 38.4 29 94.4 30 212.5 31.2 329.9 144 333 188.8 335.8c44.7 2.8 137.2-23.5 137.2-122.6 0-94.9-66-171.8-139.8-173.2Z"/></g><g clip-path="url(#b)"><path fill="#B9D4A3" d="m54.3 69.6 8-5.3v-.1l3.5-2.4 1.3-.7c.7-.3 1.5-.5 2.4-.6l8.7-.6c2.5-.2 5 1.4 5.7 3.9l1.4 4.7c1.3 0 2.6.2 3.9.5l6.5 1.5c2 .5 2.4 3.3.6 4.4l-5.2 4h-.3c2.5 6.9 0 13.3 0 13.3l-.1-.5c.6 7.2.6 17.2-8.1 21.8l-.9 10.7a46 46 0 0 1 22.5 10.1c15 12.6 13.9 52.4 13.9 52.4s-15 4.8-46.1 4.8a172.8 172.8 0 0 1-4.7 3.5 46.1 46.1 0 0 1-4.8 3c-6.5 3.4-22 7.7-30.4-8.7a67 67 0 0 1-5.6-37.4c4-21 31.8-28.3 31.8-28.3.2-.7.4-4 .6-7.4l-1.7-.7c-3.2-1.9-4.7-5.3-5.4-9-6.6-11.4 1-20.8 1-20.8l-1-10.4a6 6 0 0 1 2.5-5.7Z"/><path fill="#C3E3AA" d="M166.9 42.1h.1c5.5-2 8.2-15.8-5.9-17.2-10-1-14.8.7-17.6 1.8-1.1.4-2 .7-2.6.6h-.7c-2.6-.3-7.6-.9-11.6 3.7-4.5 5-4.1 23.2-3 26.5.4 1.3-.1 3.2-.7 5.3-.8 3.3-1.9 7.3 0 10.8 3.1 5.8 4.4 6.7 4.4 6.7l1.2-4.3-3 11-1.3.6-17.8 6s-20.2 7.8-27 23.7c-3.2 7.7-9.5 76.2-9.5 76.2s11 11 40.4 15c10.6 1.5 19.7.3 27.3-2.3a58.7 58.7 0 0 0 26.4-.5c28.8-6.9 38.8-18.8 38.8-18.8s-12.9-67.7-16.8-75c-8.2-15-28.7-21-29.1-21l-.6-9c9-.7 13.6-7 11-18.8.2-7.6-1.2-15.8-2.4-21Z"/><path fill="#543732" d="m231.4 33.2.3-.2 11.1-2.9c2.4 9 .1 18.6-4.1 26.7a131.6 131.6 0 0 1-7.3-23.6Z"/><path fill="#FBBB9D" d="m206.4 65.7-4-4s.3 17.6-4.4 27.5c0 0-.5 23.4 12.9 23.6 19.5 0 18-15.8 18-15.8l3.6-18.7-26-12.6Z"/><path fill="#EFA689" d="M232.5 82s-10 9.6-21.3 7.2c-7.2-1.5-10.7-7.3-10.7-7.3l2.4-19.2s21.6 18.5 29.6 19.3Z"/><path fill="#FBBB9D" d="M200.5 45.7S200 88 222.8 84.5c22.8-3.6 18.4-13.8 16.9-24-1.5-10.1-5.5-28.4-6.2-32.8-.7-4.4-7.4-10.1-18-5.6-10.8 4.5-16.2 15.1-15 23.6Z"/><path fill="#543732" d="M216.5 41.2c-1.2-.4-2.4 0-3.6.4l-2.2.8c-1 .4-2 1-2.8 1.6l-.4.6c0 .3.3.7.7.8a2 2 0 0 0 1.1-.3c2.5-.8 5.3-.9 7.4-2.4.2-.2.5-.4.5-.7 0-.4-.4-.7-.7-.8Zm11-1.8c-1 0-2.2.3-3.2.7l-1 .5c-.2.3-.3.7-.2 1 .1.4.4.5.7.6h2.4l5-.7c.4 0 .9-.2 1-.7 0-.3 0-.6-.3-.8a2 2 0 0 0-.8-.3 11 11 0 0 0-4.4-.2"/><path fill="#543732" d="M202.3 36.2s30.4 2.6 40.5-6c13-11.2-2-30.2-18.2-21.5-10.5 5.6-16.5 10.4-27 16-2 1-14.8 4.8-7.3 23.6l12-12.1Z"/><path fill="#EFA689" d="M226.2 55.6c.8.8 1.7 1.7 1.8 2.8 0 1.3-1 2.4-2 3.2-1 .8-2 1.4-3 2a2 2 0 0 1-1 .2.8.8 0 0 1-.7-.5c0-.5.5-.9 1-1.2.5-.4 1-1 1.4-1.6l.7-1.2c.1-.5 0-1-.2-1.6-.5-1.5-1.5-2.8-2.3-4.2-.5-.8-1.2-2.1-1.1-3.1 0-.3 0-.8.5-.7.4 0 .5.7.7 1 1 1.9 2.6 3.4 4.2 5Z"/><path fill="#fff" d="M215.5 49.4c.3-.2.6-.5 1-.6a2.9 2.9 0 0 0-3.9.4 3.2 3.2 0 0 0 .1 4.3 3 3 0 0 0 3.3.6l-.4-.3a3.2 3.2 0 0 1 0-4.4Z"/><path fill="#543732" d="m216.8 49.1-.4-.3a3 3 0 0 0-.9.6 3.2 3.2 0 0 0 .5 4.7 3 3 0 0 0 1-.6 3.2 3.2 0 0 0-.2-4.4Z"/><path fill="#43464C" d="M161.5 130.7a3.4 3.4 0 0 0 3.2 2.4l18.3-.2c2 0 3.5-2 3.1-4l-3.6-19.7-6.2 1.3 3.3 15-12.6 1.4-4.8-13.5-3.7.8-2 1.4 5 15.1Z"/><path fill="#fff" d="m229.7 47.4 1-.7a2.9 2.9 0 0 0-3.9.4 3.2 3.2 0 0 0 0 4.4 3 3 0 0 0 3.4.6l-.4-.4a3.2 3.2 0 0 1-.1-4.3Z"/><path fill="#543732" d="m231 47-.4-.3a3 3 0 0 0-1 .7 3.2 3.2 0 0 0 .6 4.7 3 3 0 0 0 .9-.7 3.2 3.2 0 0 0-.1-4.4Zm-40.7 1.4s-6 25.7 10.2 33.5c0 0 2.2-12.5 3-18.5.9-6-.1-29.7-.1-29.7l-13.1 14.7Z"/><path fill="#543732" d="M201.8 29.6c0 .6 7.6 31 3 35.3-3.1 3-9 4.7-9 4.7l-.3-34.7 6.3-5.3Z"/><path fill="#fff" d="M306 76.3s-1.7 56.2-9.2 62.2c-3.8.7-13.4.1-26-14.5a67.5 67.5 0 0 0-21.8-17.6L229 97s-3 15-13.6 15c-10.8 0-17.4-22.8-17.4-22.8s-30.6 6.2-48.2 24.2c-8.5 8.6-21 28-26.9 45.8-8.2 24.8-11.7 40 10.2 51.4 37.3 31.4 107.1 8.5 107.1 8.5l6.5-63.3s28 24.8 64.7 10.6c25.5-9.9 23.7-92 23.7-92l-29 2Z"/><path fill="#000200" d="M225.5 132.2c-1-.2-3.6-.2-3.6-.2l-.4 7.4 4 .3s3-.3 3.3-3.3c.3-3-2.4-4-3.3-4.2Zm-.3 5.1H224l.1-2.9s.7 0 1.2.2c.4 0 1.2.4 1.1 1.5 0 1-1.2 1.2-1.2 1.2Zm8.8-4.9a4 4 0 0 0-.5 8.1 4 4 0 0 0 .5-8.1Zm-.5 5.6a1.5 1.5 0 0 1 .2-3 1.5 1.5 0 0 1-.2 3Z"/><path fill="#FC484C" d="M221.4 141.2s2.4 2 7.6 2.3c5.1.2 7.3-1.3 7.3-1.3l-.2 2.7s-3.9 2-7.6 1.7c-3.7-.3-7.3-2.8-7.3-2.8l.2-2.6Z"/><path fill="#D4D0D9" d="M141.2 188.6c-.4-.7 25.5-48.5 25.5-48.5l-15.2 61.8s-7.5-7.5-10.3-13.3Z"/><path fill="#43464C" d="m153.7 191.7 87 15.3-.5 12s-33.1 10.3-57.2 1.7c-24.1-8.5-31.7-17-31.7-17l2.4-12Z"/><path fill="#fff" d="M215 68c3.5.8 7.1 1.5 10.7.8.3 0 .6-.1.8-.3l.3-.3-.5-.5c-1.2-1-2.9-1-4.4-.7-.6 0-1.3.2-2.3 0-1-.2-2-.8-3-1-.6 0-1.3-.1-1.8.2-.4.3-.6.8-.7 1.4.3.2.6.2 1 .3Z"/><path fill="#302735" d="M226.9 70c.1-.4.2-.8.1-1.2l-.2-.6-.3.3c-.2.2-.5.3-.8.3A25 25 0 0 1 215 68l-.9-.3v.9c.3.8.9 1.4 1.5 2a9.4 9.4 0 0 0 8 1.9c1.3-.3 2.7-1 3.3-2.4Z"/><path fill="#FBBB9D" d="M312 79.3s-9.3-17.4-11.4-27c-1.3-6-2-8.6-2.1-12.6 2-.8 5.8 1 7 7.7a28 28 0 0 0 4.9 10.6s0-12.4.4-22.7c.3-6.8.4-13.2 2.7-13.3 2.1 0 2.4 6.7 2.8 13.1.4 6 1.2 13.7 1.2 13.7s2-13 2.3-22c.1-4.3 2.3-7.1 3.3-7 1 0 1.6 2.9 2 6.7.7 8.3 0 21.1 0 21.1s1.8-7.3 3.2-14.3c.8-4.4 2-8.6 4-8 1.7.3 2 4.3 1.5 8.9l-1.5 18.4c.1-.6 2.2-5.7 3.6-10.5.7-2.4 2.1-6.2 3.8-5.7.7.2.4 5 0 8-1.4 9.6-9.3 33.6-9.3 33.6s-4.5 2.3-9.3 2.6c-4.6.4-9.1-1.3-9.1-1.3Z"/><path fill="#EFEFEF" d="M309.5 74.5s-3.5.4-3.5 1.8 6 3 6 3l-2.5-4.8Zm22.4-1.4s3 .2 3.2 1.4c.2 1.6-4.8 3.5-4.8 3.5l1.7-5Z"/></g><defs><clipPath id="b"><path fill="#fff" d="M25 6h316v178H25z"/></clipPath></defs></svg>