<svg xmlns="http://www.w3.org/2000/svg" fill="none" viewBox="0 0 352 196"><mask id="a" width="352" height="182" x="0" y="2" maskUnits="userSpaceOnUse" style="mask-type:alpha"><path fill="#F7F8FA" d="M0 2h352v182H0z"/></mask><g mask="url(#a)"><path fill="#D1EEBA" d="M68.1 293.4s-50-42.5-38.3-144.4c11.7-102 109-114.8 185-107.2 76 7.5 115.4 86 108.4 154.8-7 67.2-63.3 114-127.7 118.5-53.2 3.8-75.8.8-75.8.8"/><path fill="#E6A236" d="M202.3 90.8c-2 2.6-4.5 4.7-7.3 6.2-5.1 2.5-11.7 3.1-14.9 7.8l-2 3.7c-2.4 3.5-6.8 5-9.6 8.2-.9 1-1.6 2.2-1.3 3.5.4 2 3 2.9 5 2.5 3.8-.6 6.7-3.4 10-5.2 6.3-3.1 14-2.3 20.2-5.6 4.4-2.5 7.4-6.8 11.5-9.7 2.2-1.6 4.6-2.7 7-4.2 2.2-1.5 4.3-3.3 5.4-5.8 1-2.5.9-5.6-1-7.5-2.3-2.1-5.9-1.9-8.9-1-2.9.9-5.7 1.4-8.5 2-2.7.7-4 3-5.6 5.1Z"/><path fill="#B9D4A3" d="M214 69.5a8.8 8.8 0 0 0-5.4 3.9c-.5.7-.8 1.6-1.4 2.3-.8 1-2.1 1.4-3.3 2-2.3.8-4.5 2.2-6.5 3.8-.5.4-1 1-1.1 1.6-.3 1.4 1.1 2.6 2.3 2.6 1.3 0 2.4-.7 3.5-1.3 5.3-2.5 12-.7 16.6-4.4 2-1.5 3.4-3.8 5.5-5 1.1-.5 2.4-.8 3.3-1.5 1-.8 1.7-2.4 1-3.6-.5-.8-1.4-1-2.3-1.2-3.5-.6-8.7-.1-12.1.8Z"/><path fill="#AA693D" d="M224.4 66.4v69.2h9.1L228 65.3l-3.6 1Z"/><path fill="#E6A236" d="M242.9 68.2c2.7 1.8 5 4.5 5.8 7.6.3 1.2.4 2.4 1 3.6.7 1.7 2.3 2.9 3.7 4 2.8 2.5 5.2 5.3 7.2 8.3.5.8 1 1.6 1 2.5-.2 1.8-2.6 2.6-4.3 1.9-1.7-.7-3-2.2-4.3-3.4-6-6-16-7.5-20.9-14.4-2-3-3-6.5-5.4-9-1.3-1.3-2.9-2.3-3.9-3.7-1-1.5-1.2-3.8.2-4.8 1-.7 2.4-.5 3.6-.2 5 1.2 12 4.6 16.3 7.6Z"/><path fill="#A05BBA" d="m202 135 7.4 49h32.1l7.4-48.4-46.8-.6Z"/><path fill="#FFB031" d="M63.7 82.1S40 89.5 47.4 113.5c6.5 20.5 28.2 8 28.2 8l6 7.3c.5.7 1.5.1 1.4-.8l-1.4-9.7s8.2-9.3 8-17c-.4-9.8-9.5-23.2-25.9-19.2Z"/><path fill="#543732" d="M54.8 99.7c0 .5.6.9 1 .7l20.8-4.7c.5 0 .8-.6.6-1.1l-.2-.4a.9.9 0 0 0-1-.5l-20.5 5a1 1 0 0 0-.7 1Zm.7 5.3c0 .6.6 1 1.1.9l21.3-4.1c.5-.1.9-.7.7-1.2l-.2-.8a1 1 0 0 0-1-.7l-21.2 4.7a1 1 0 0 0-.7 1.1Zm.7 6c0 .2.2.4.5.4l21.6-4.3c.2 0 .4-.3.3-.6V105c-.1-.3-.3-.5-.6-.4l-20.7 4.6c-.7.1-1.2.9-1.1 1.7Zm48.5-61 14.5 19.4c9.1 5.5 19.2 12.8 17.6 17.5-2.9 8.4-7 48.2-19 46-35.7-6.6-13-82.8-13-82.8Z"/><path fill="#99C6C4" d="M152 99.8s21 10.3 26.5 20.3c7.7 14.2 11 65.7-5.6 67.8-16.7 2-66.1-10.2-66.1-10.2l2.3-21.4 46.6 5.5"/><path fill="#99C6C4" d="M127.8 98.8s-24.9 8.6-26.7 23.2a911.7 911.7 0 0 0-4 62.5c14.5 2.1 20.6 2 42.4 3.5 5 .4 32.5 1.8 35.5-.3 10.2-7.4-13.4-28.9-13.2-29.5.3-.8-9.6-58-9.6-58"/><path fill="#fff" d="m156.8 106.1-7.5 60.9-29.5-5.5-1.3 3.4-5-3.6 8-60 6-2.8 29.3 7.6Z"/><path fill="#FBBB9D" d="M150.6 67.8s-.8 28.5-24.8 24.4c-26.2-4.5-24.2-28.3-16.5-40 5.5-8.6 18.6-12.7 25.5-10 7 2.7 17.9 10.5 15.8 25.6Z"/><path fill="#FBBB9D" d="m145.4 82.2 6.5 17.6s-8.6 15-14.2 13.9c-5.6-1.2-8.7-10.1-8.7-10.1L126.2 91l19.2-9Z"/><path fill="#EFA689" d="M126.5 92.3s9.8 1.4 16-6.2l4.5.8 1.4 3.5s-11.8 8.3-22 1.9Z"/><path fill="#fff" d="m125.1 68-.8.2c.1-1.1 1.1-2 2.3-2 1.3 0 2.3 1.1 2.3 2.5 0 1-.6 1.8-1.5 2.2v-.4c0-1.4-1-2.4-2.3-2.4Z"/><path fill="#543732" d="M124.2 68.6v-.4c.3 0 .6-.2 1-.1a2.4 2.4 0 0 1 2.2 2.8c-.3 0-.5.2-.9.1-1.3 0-2.3-1-2.3-2.4Z"/><path fill="#fff" d="M110.9 69c-.3 0-.6 0-.9.2.2-1.1 1.2-2 2.4-2 1.3 0 2.3 1 2.3 2.4 0 1-.6 1.9-1.5 2.2v-.4c0-1.3-1-2.4-2.3-2.4Z"/><path fill="#543732" d="M110 69.6v-.4l.9-.2a2.4 2.4 0 0 1 2.3 2.9l-.9.1a2.4 2.4 0 0 1-2.3-2.4Z"/><path fill="#EFA689" d="M116.6 73.3c-.5.8-.5 2 0 3 .5.8 1.3 1.5 2.1 2a4 4 0 0 0 2.1.7c-.2-.5-.7-.8-1-1.2-.7-.7-.9-1.7-.8-2.7.1-.9.5-1.8.8-2.6.7-1.5.2-3.3-.3-3.6-.2 1-.2 1.4-.8 2.5-.5.8-1.5 1.1-2 1.9Z"/><path stroke="#EFA689" stroke-linecap="round" stroke-miterlimit="10" stroke-width="2" d="M126.5 82.4s-3.2 2.4-7.8 1.6"/><path fill="#50555B" d="M105.7 162c-.6-1-5.8-14.8-7.7-20a2.8 2.8 0 0 0-2.7-1.8l-12.4.3c-2 0-3.3 2-2.6 3.8l4.7 13.3 8.2 6 13.3.6-.8-2.1Z"/><path fill="#43464C" d="M103.3 162c-.6-1-5.8-14.8-7.7-20a2.8 2.8 0 0 0-2.7-1.8l-12.4.3c-2 0-3.3 2-2.6 3.8l4.7 13.3 8.2 6 13.3.6-.8-2.1Z"/><path fill="#fff" d="m111 173.5-2 11.4 6.3.9 1.2-11.2-5.6-1.1Z"/><path fill="#EFA689" d="M81.9 162.6c4.1 6 15.4 8.9 18.5 9.1 3 .3 16 2.9 16 2.9l2.1-9.6-7.1-6.4a14.9 14.9 0 0 0-4.9-2.8l-4-1.4 3.2 7.7s-9 .5-18.4-3.4c-9.5-3.9-1.8 2.6-1.8 2.6s-4.6-3.9-5.7-2.9c-1 1 2.1 4.2 2.1 4.2Z"/><path fill="#EFA689" d="M95 170.5c-.1-.1-10.8-2.5-13-4.8-2.1-2.2.2-2.6 1.5-2 1.3.4 11.5 6.8 11.5 6.8Z"/><path fill="#EBEAF4" d="M154 38.2h-.5.5Z"/><path fill="#8EADAA" d="m163.5 136.7-1.6 33-12.6-2.7 14.2-30.3Z"/><path fill="#543732" d="M138.3 70.1c-1.8-4-8.7-5-15.2-8.6a15 15 0 0 1-7.1-9.9c-1.5 2.3-3 4-5.4 8a60.1 60.1 0 0 1-6.7 9S95 42 124.1 38.4c11.1-1.3 27 3.6 34 31.5 0 0 6.2 26.5 9.2 30.1 3 3.7 26.6 14.5 14.5 28.7-5.1 6-19.7 8.6-29.6-15.5-8.6-20.7-14-43-14-43Z"/><path fill="#543732" d="M147.7 50.2c.5-.7 4.2-22.5-4-24-8.3-1.7-14.1 14.5-14.1 14.5l18 9.5Z"/><path fill="#ACDDDD" d="M148.7 44.1c-.4 0-16.7-8.9-16.7-8.9l-1.6 3.2 17.9 10.2.4-4.5Z"/><path fill="#968791" d="M192 174.9c-.7 0-18.4-2.7-22.3 5.6-.8 1.8.5 3.8 2.4 3.8h27.7"/><path fill="#D9DBE0" d="M213.3 153.6c-.6-2.1-1.5-4.1-2.8-5.8.6-2.5 1.9-9.8-1-10.7-3.1-.9-5.4 3.6-6 5a17.2 17.2 0 0 0-12.4-.7c-1.3-2-4.2-5.9-6.8-5.3-2.5.5-2.3 7.8-2 11.9-2 2.8-3 6.3-3.2 10-.4 8.3-1.2 32.1 19.7 32.6 23.1.5 31.3 1 42.1-.4 35.9-4.5 51.1-7.2 51.1-7.2s-17-58.4-78.7-29.4Z"/><path fill="#fff" d="M189.4 148.2c0 1-.9 2-2 2.2.5.4 1 .7 1.6.7 1.3 0 2.4-1 2.4-2.4a2.3 2.3 0 0 0-2.8-2.3c.5.5.8 1 .8 1.8Z"/><path fill="#2C2E33" d="M189.4 148.2c0-.7-.3-1.3-.8-1.8-1.1.2-2 1.2-2 2.3 0 .7.4 1.3.9 1.7 1-.2 1.9-1.1 1.9-2.2Z"/><path fill="#fff" d="M203.8 148c.3 1.2-.3 2.3-1.3 2.8.5.2 1.1.3 1.7.2 1.2-.4 2-1.6 1.6-2.9a2.3 2.3 0 0 0-3.2-1.5c.5.3 1 .8 1.2 1.5Z"/><path fill="#2C2E33" d="M203.8 148c-.2-.6-.6-1-1.2-1.4-1 .5-1.6 1.6-1.3 2.7.2.7.7 1.2 1.2 1.5 1-.5 1.6-1.6 1.3-2.7Zm-10.3 4.4a.7.7 0 0 1-.6-.6c0-.3.2-.7.5-.7 2.2-.4 2.3-2.6 2.3-2.7a.7.7 0 0 1 1.3 0c0 .2.1 2.5 2.2 2.5.4 0 .7.3.7.7 0 .3-.3.6-.7.6-1.5 0-2.4-.7-2.9-1.6a4 4 0 0 1-2.7 1.8Z"/><path fill="#C9BBB9" d="M199.3 190.6h-27.7c-1.9 0-3.2-2-2.4-3.7 3.9-8.4 21.7-5.8 22.2-5.7 3 .4 6.5 2.8 8 9.4Z"/><path fill="#9B9B9B" d="m183.7 136.3 2.2 7.5-3.6 4.2s-1.3-9.3 1.4-11.7Zm26.7 1.5-2.5 6.5 2.6 3.5s2-6.4 0-10Z"/></g><path fill="#9B9B9B" d="M280.4 161.9s14.4 5.4 13.1 17.5c-1.3 12.2-45 23-50.7 10-3.6-8.4 33.4-16.7 33.4-16.7l4.2-10.8Zm-74.2 21.6c-.2-1.1-6.3-13.8-17.9-9.5-7.4 2.8-7.7 19.1-1.2 20 6.6.8 7.4-10 7.4-10h11.8"/><path fill="#9B9B9B" d="M185 183.3s-.7-10.3-8.5-9.6c-7.8.7-11.7 16.9-5 18.8 6.8 2 11.3-8.6 11.3-8.6"/><path fill="#2C2E33" d="m175 192.5-2.2.3a12 12 0 0 1 2.2-6.9 1 1 0 0 1 1.5-.2c.5.3.6 1 .3 1.5-.6.9-2 3.4-1.8 5.3Zm-3.6-.3v.4l-1.3-.8c-.1 0-.2 0-.3-.2l-.6-.6c0-3 1.5-5.5 1.6-5.6.3-.5 1-.7 1.5-.4.5.4.6 1 .3 1.5 0 0-1.6 2.8-1.2 5.7Zm18.6.8c-.8.3-1.5.4-2.2.5-.6-3.1 1.6-6.8 1.7-7a1 1 0 0 1 1.5-.3c.5.3.6 1 .3 1.5-.5.9-1.7 3.5-1.4 5.4Zm-3.6 0v.5l-.1-.1c-.4-.3-.8-.4-1.3-.6l-.2-.2-.8-.6c-.1-3 1.1-5.6 1.2-5.7.3-.5 1-.7 1.5-.5.5.3.7 1 .4 1.5 0 0-1.4 2.9-.7 5.8Z"/></svg>