<svg xmlns="http://www.w3.org/2000/svg" fill="none" viewBox="0 0 352 184"><mask id="a" width="298" height="180" x="33" y="4" maskUnits="userSpaceOnUse" style="mask-type:alpha"><path fill="#C4C4C4" d="M33 4h298v180H33z"/></mask><g mask="url(#a)"><path fill="#D1EEBA" d="M330 196.2c1.6-89-54.4-157.3-172.5-156.2C40.1 41.2 37 154 34.2 198.8 31.4 243.5 57.7 336 156.8 336c94.9 0 171.8-66 173.2-139.8Z"/><path fill="#AABC61" d="M158.7 93a25 25 0 0 1-10.4 4.5c-6.7 1.2-14.4 0-19.5 4.2-1.3 1-2.3 2.3-3.6 3.4-3.8 3-9.3 3.5-13.5 6.1-1.3.9-2.6 2-2.7 3.6-.1 2.3 2.6 4 5 4.1 4.6.5 8.8-1.8 13.2-2.7 8.2-1.6 17 1.6 25-.3 5.9-1.4 10.7-5.2 16.4-7.2 3-1 6.2-1.6 9.3-2.6 3-.9 6-2.3 8.1-4.7 2-2.3 2.8-5.9 1-8.5-1.9-3-6-3.7-9.8-3.6-3.6 0-7-.2-10.5-.3-3.3 0-5.6 2.1-8 4Z"/><path fill="#C9D86F" d="M181 57.4V149h10l-6-93-4 1.4Z"/><path fill="#C9D86F" d="m172 81.8 6.7 66.2h9.3l-9.6-70-6.4 3.8Z"/><path fill="#AABC61" d="m168 108.7 4.6 40.3 10.4-.3-8.7-41.7-6.3 1.7Z"/><path fill="#AABC61" d="m191.5 41-10 109 14.1-.4v-108l-4.1-.5Z"/><path fill="#C9D86F" d="M147.4 71.7c-1.5 1.3-2.6 3-4.3 4.2-2.5 1.7-5.9 1.8-9 2.2-3.1.4-6.5 1.4-7.9 4.2l-1 2.5c-1.4 3.6-5.4 5.3-8.8 7.2-3.4 1.8-7 5-6.3 8.7 0 .6.3 1.2.8 1.6.6.6 1.5.7 2.3.7 3.9 0 7.5-1.7 11.2-2.6 5.7-1.5 11.7-1.3 17.5-1.9 5.8-.5 12-1.9 16.2-5.7 1.9-1.7 3.3-3.8 5.2-5.4C168.8 83 195 76.6 176.4 70c-8.8-3-21.5-5.5-29 1.7Z"/><path fill="#AABC61" d="M162.2 45.2c-4.5.3-9 1.7-12.2 4.7-1.2 1.1-2.1 2.4-3.5 3.4-2 1.4-4.7 1.7-7.2 2-5 1-9.8 2.5-14.3 4.6-1 .5-2.3 1.2-2.8 2.2-1 2.1 1.4 4.5 3.8 4.8 2.5.4 5-.5 7.4-1.1 11.3-2.6 24 2 34.6-2.6 4.4-1.9 8-5.2 12.6-6.4 2.3-.7 4.9-.7 7-1.7 2.3-1 4.1-3.3 3.1-5.4-.7-1.4-2.4-2-4-2.5a84.6 84.6 0 0 0-24.5-2Z"/><path fill="#C9D86F" d="M186.3 42c-2 0-4.1-.8-4.7-2.6-.3-1 0-2.1.6-3 2.6-4.6 8.7-5.4 14-5.8l30.1-2c6-.3 12.8-.4 17 3.7 1.2 1 2 2.4 1.6 3.9-.5 1.7-2.6 2.4-4.4 2.7l-14.3 3c-8 1.6-16.4 3.7-24.6 3.4-3.4-.1-4-1.4-6.8-2.6-2.7-1.3-5.4-.3-8.5-.6Z"/><path fill="#A05BBA" d="m161.5 147 7.3 49H201l7.3-48.4-46.8-.6Z"/><path fill="#fff" d="M79 86.7s-27.6 8.5-39.5 20c-11.8 11.6-6.2 68 .4 74.6 6.5 6.6 89.2 2.5 89.2 2.5l.3-25.7-67-1.8"/><path fill="#fff" d="M109 91.4s31.3 16.6 35 31.3c3.8 14.7-25.6 87.8-25.6 87.8l-84.6-.5L76.3 90.8l32.8.6Z"/><path fill="#543732" d="m117.3 38.3.3-.1 11-1.5a34 34 0 0 1-7 24.3 120.2 120.2 0 0 1-4.3-22.7Z"/><path fill="#FBBB9D" d="m89.6 65.7-3.3-4.2S84.6 78 78.9 86.7c0 0-3.2 21.7 9.7 23.3 12.8 1.7 19-12.7 19-12.7l5.7-17-23.7-14.6Z"/><path fill="#EFA689" d="M112.9 83.8s-10.7 7.8-21.3 4.3c-6.7-2.2-9.5-8-9.5-8l4.5-17.5s18.6 19.6 26.3 21.2Z"/><path fill="#FBBB9D" d="M86.2 46.5S81 86 103.2 85c22.4-.8 19.3-10.8 19-20.4-.3-9.6-2-27-2.2-31.2-.2-4.2-6-10.2-16.7-7.1-10.8 3-17.2 12.2-17 20.2Z"/><path fill="#543732" d="M99.8 44c-1-.6-2.2-.3-3.4 0l-2.2.5c-1 .2-2 .6-3 1.2a1 1 0 0 0-.3.4c-.2.4.2.7.5.8h1.1c2.5-.6 5.2-.3 7.4-1.5.2-.1.5-.3.5-.6.1-.4-.2-.7-.6-.8Zm14-.3c-1-.1-2.1 0-3.1.2l-1 .4c-.2.3-.4.6-.3 1 0 .3.3.5.6.6l1 .1h6.1c.4 0 1 0 1.1-.5.1-.2 0-.6-.2-.8l-.8-.4a10 10 0 0 0-4.2-.6m-42.7.7c2.5-1 5-2 7.2-3.4 2.1-1.4 4-3.2 6-4.6 2.1-1.5 4.6-2.5 7.1-2.2a41 41 0 0 1-1 8.5c-.6 2.8-1.8 5.6-3.7 7.7 2 6.2.6 13-.8 19.4-.5 2.4-1 4.8-2 7-3-.6-5.7-2.8-7-5.6-.9-2.2-1-4.6-.9-7l-.1-.9-.5-.4-1.1-1a12 12 0 0 1-2.4-3.7 20.2 20.2 0 0 1-.8-13.8Z"/><path fill="#543732" d="M89 37.9s29 5.8 39.7-1.2c13.7-8.8 1.4-28.2-15.1-21.9-10.7 4-17 7.8-27.7 11.8-2 .8-15.6.4-15.6 17.8l18.8-6.5Z"/><path fill="#543732" d="M70.4 44.4s-5.5-22 16.4-24c17.1-1.6 27.9 8.9 27.9 8.9l-19.5 2.1"/><path fill="#EFA689" d="M109.8 58.6c.7.8 1.4 1.7 1.4 2.8 0 1.2-1.2 2.1-2.3 2.7-1 .6-2 1.1-3.1 1.5-.3 0-.6.2-1 .1-.2 0-.5-.3-.6-.6 0-.5.6-.7 1-1 .7-.3 1.2-.8 1.7-1.3l.7-1c.2-.5.2-1 0-1.6-.2-1.4-1-2.7-1.7-4-.4-.9-1-2.2-.7-3.1 0-.3.2-.7.6-.6.4 0 .4.7.5 1a19 19 0 0 0 3.5 5Z"/><path fill="#fff" d="m98 51.5 1-.5a2.9 2.9 0 1 0-1 5 2.9 2.9 0 0 1 0-4.4Z"/><path fill="#543732" d="m99.3 51.4-.4-.4-.9.5a2.9 2.9 0 0 0-.4 4l.3.4c.4 0 .7-.2 1-.5 1.2-1 1.4-2.8.4-4Z"/><path fill="#fff" d="m115 51.3 1-.5a2.9 2.9 0 1 0-1 5 2.9 2.9 0 0 1 0-4.4Z"/><path fill="#543732" d="m116.3 51.1-.4-.3c-.3 0-.6.3-.9.5a2.9 2.9 0 0 0-.4 4l.3.4 1-.5c1.2-1 1.4-2.8.4-4Z"/><path fill="#fff" d="M144 122.7c.5 2.2 6.4 31.1 10 49.4 1.6 7.5-4.2 15-11.8 14.5l-51.5.2 18.4-57.8 35-6.3Z"/><path fill="#EFA689" d="M98 68s4.2 8 12.1 5.5C118.1 71.1 98 68 98 68Z"/><path fill="#EFEFEF" d="m43.6 182.6 84.3 4-4.3 11-81.6-9.7 1.6-5.3Zm16.2-52 2.5 21.9 65.8 2.5-.3-9.9-59-1.7-9-12.8Z"/><path fill="#000200" d="M107.2 122c-1-.2-3.9-.1-3.9-.1v8h4.3s3.2-.4 3.4-3.6c.2-3.3-2.8-4.2-3.8-4.3Zm0 5.5H106v-3h1.2c.5.1 1.3.4 1.3 1.5s-1.2 1.5-1.2 1.5Zm9.1-5.7a4.3 4.3 0 0 0-.1 8.7c2.4 0 4.3-2 4.4-4.3 0-2.4-2-4.4-4.3-4.4Zm-.2 6a1.6 1.6 0 0 1 0-3.3 1.6 1.6 0 0 1 0 3.2Z"/><path fill="#FC484C" d="M103.3 131.8s2.7 2 8.2 2c5.6 0 7.7-1.8 7.7-1.8v3s-4 2.3-8 2.2c-4-.2-8-2.6-8-2.6l.1-2.8Z"/><path fill="#FBBB9D" d="M166.4 160.5c-4.4-1.4-11.8-1.7-14.3-3.3-3.7-2.5.5-10.5 2-14 1.9-4.4 1.4-10-1.2-10.3-1.3-.2-2 1.5-2.5 2.7-2.1 5.5-3.8 8-7.8 12.3a22 22 0 0 1-10.6 6c-.5.2-3.8.8-3.9 1-2 6.7-3.5 13.5-4.8 20.4l2.8.5c2.3.5 4.7 1 6.8 1.9 9.8 4.4 20.2 6.8 28.5 3.4a2 2 0 0 0 1-1c.6-1.2-.7-2.5-1.8-3.3 2 .2 4 0 5-1.8.7-1.4.1-3.3-1.4-3.5 1.1.4 3.2-1 3.6-2.2.4-1.2-.5-2-1.7-2.9 1.3.5 3.3-.7 3.7-2.7.2-1-1.6-2.7-3.4-3.2Z"/><path fill="#EFA689" d="M128.1 155s-2.1 7.2-2.9 10.7l-1.9 9.6 4 .7 2.2-21.4-1.4.4Z"/><path fill="#D4D0D9" d="M59.2 104.7s-2.7 10.6-10 16.8c-.4.4-1.5 1.3-1 2.6.4 1 1.8.2 2.4-.2 3.5-2.7 8.7-8.4 11.7-16.3 2.3-6.3-3-2.9-3-2.9Z"/><path fill="#43464C" d="M64 145.3c0-10.2 5.1-24 5.6-24.5l-3.6-1.3-4-2.1c0 .7-5.6 14.5-13 21.8-5.3 5.3-8.8 7.7-11.3 13.4-4.8 10.9 0 16.4 5.8 18.7 6 2.5 13.2 3.2 18.4-8.6 2.4-5.2 2.2-10 2.2-17.4Z"/><path fill="#EAE9F0" d="m79.6 105.4-17.3-7.2-3.4 7.1 3.6 2.8c.9.6 1.4 2.5 1 4l-2 5.2c-.3.7-.2 1.4.3 1.6l6.9 2.7c.4.2 1-.1 1.4-.7l3-6.7a2 2 0 0 1 2.2-1.1l.8.2c1.5.4 3.6-1 4.5-3 1-2 .6-4.3-1-5Z"/><path fill="#D4D0D9" d="M62 98.1c-1.3-.5-3 .5-4 2.3-.8 1.8-.6 3.8.6 4.7l.3.2 3.4-7-.3-.2Z"/><path fill="#FBBB9D" d="M74.5 135c-1-2-4.6-13.4-4.8-13.8l-3 5.4c-1.2 2-6-.2-7.3-2.6-.3-.7-.8-3.5-.8-3.5l-2.9 2.3c-1 .8-1.7 2-1.8 3.2l-.5 3.6-1 .7c-1.8 1-2.8 3-2.8 5v1.8l-.4.5a4.7 4.7 0 0 0-1.2 5c.8 2.2 2.2 4.3 4.1 5.7l.4.3a20 20 0 0 0 10.5 4l18.6.5.4-13.6-7.5-4.5Z"/><path fill="#FBBB9D" d="M59.5 124c.6-1.8 2-5 2.8-6.5-2.9-1-8.2-3.2-9-3-.9 0-3.2 4 6 9.5h.2Z"/><path fill="#543732" d="M231.7 58.8 248 80.6c10.3 6.2 21.7 14.5 19.8 19.8-3.2 9.5-8 54.5-21.5 52-40.3-7.4-14.7-93.6-14.7-93.6Z"/><path fill="#FBBB9D" d="M252 92.8s5.2 9 5.5 16.4c0 0 3 3.5 7.7 2.3 8.8-2.1 11.4-11 12-13.4a105 105 0 0 0-5.5-17.4l-19.6 12Z"/><path fill="#FBBB9D" d="M273.5 70.3s-.7 26.6-23 22.7c-24.1-4.1-22.3-26.3-15.2-37.3 5.1-8 17.2-11.8 23.6-9.3 6.4 2.6 16.6 9.9 14.6 23.9Z"/><path fill="#EFA689" d="M252.3 93.1c-.2 0 10-1.2 19.7-12.1l2.3 6.2c-.1 0-10.7 8.9-22 6Zm-13.6-17.2c-.5.8-.5 1.8 0 2.7.3.8 1 1.4 1.7 1.9.6.3 1.2.6 1.8.6-.2-.5-.6-.7-1-1.1a4 4 0 0 1-.5-2.4c0-.9.3-1.7.7-2.5.5-1.3.1-3-.3-3.2-.2 1-.2 1.3-.7 2.2-.4.8-1.3 1-1.7 1.8Z"/><path fill="#F5F7FF" d="M247.1 68.2c-.5.1-.8.4-1.1.7 1 .1 1.6.7 1.9 1.7a2 2 0 0 1-.6 2.2l.9-.1c1.2-.4 2-1.6 1.6-2.9-.2-1-1.5-2-2.7-1.6Z"/><path fill="#543732" d="M247.9 70.6c-.3-1-1.1-1.5-2-1.7-.5.5-.8 1.4-.6 2.1.3 1 1.1 1.6 2 1.8.6-.5.8-1.3.6-2.2Z"/><path fill="#F5F7FF" d="m235.4 68.2-1.1.7c1 .2 1.6.8 1.9 1.7a2 2 0 0 1-.6 2.2l.9-.1c1.2-.4 2-1.6 1.6-2.8-.1-1.2-1.4-2-2.7-1.7Z"/><path fill="#543732" d="M236.3 70.6c-.2-1-1-1.5-1.9-1.7-.5.5-.8 1.4-.6 2.1.2 1 1 1.6 1.9 1.7.6-.4.9-1.2.6-2Z"/><path fill="#513C34" d="m252.3 81.6-.6-.4.1.7c0 .2-.2.6-.4.7-.7 1-2.2 1.5-3.4 2-1 .2-1.7.4-2.6.8-.5.3-1 .5-1.6.6a2 2 0 0 1-1.5 0l-.1-.2c.1.4.4.7.6 1 .8.8 1.8 1 2.8 1 2 .1 4-.5 5.6-1.6.7-.7 1.5-1.3 1.8-2.3.4-.6 0-1.7-.7-2.3Z"/><path fill="#fff" d="m244 86.2 1.5-.7 2.6-.9a6 6 0 0 0 3.5-1.9l.3-.7v-.7c-.6-.2-1.2-.2-1.8 0-1.9.2-3.6 1.2-5.4 1.8-.7.3-1.7.5-2.1 1.3-.4.5-.4 1.1-.2 1.6 0 0 .2 0 .2.2h1.4Z"/><path fill="#EFAB95" d="M266 70.7s0-4 1.9-4 1.9 1.8 1.9 1.8-.8-.8-1.8-.6c-1.4.4-2 2.8-2 2.8Zm1.6 5.2s4.4-.8 4.6-4.6c0 0 .4 2.6 0 3.7-.5.8-2.8 1.8-4.6.9Z"/><path fill="#8EADAA" d="M229.3 125.3s-16.5 50.2.7 50c17.2-.3 27.8-33.7 27.8-33.7l-11.3-16.8-17.2.5Z"/><path fill="#543732" d="M267 74c-1.9-4.6-9.7-5.7-17.1-9.7a17 17 0 0 1-8-11.2c-1.8 2.6-3.3 4.6-6.1 9.1-3.9 6.2-7.6 10-7.6 10s-10.1-30 22.8-34c12.6-1.5 30.5 4 38.4 35.5 0 0 7.1 30 10.5 34.2 3.3 4 30 16.3 16.4 32.4-5.8 6.8-22.3 9.7-33.5-17.6C273 99.3 267 74 267 74Z"/><path fill="#543732" d="M277.3 50c.6-1 4.7-25.5-4.6-27.3-9.2-1.8-15.9 16.5-15.9 16.5L277.3 50Z"/><path fill="#ACDDDD" d="M278.4 43c-.4 0-18.8-10-18.8-10l-1.9 3.6L278 48.1l.5-5Z"/><path fill="#99C6C4" d="M277 96.7s-3.9 9.6-20 9.7c0 0-18.8 23.8-16.8 39.6 2.1 15.8 11.5 19.5 11.6 28.7.3 9-8.6 34.6-8.6 34.6s31.6-7 51.3-15.1c5.6 1 15 1.6 17.8-.4-4.4-12.6-16.2-29.5-19-37.7-1.8-5.2-3-9.5-3-13.1 0-10.6-3-32.4-13.3-46.3Z"/><path fill="#fff" d="M277 96.7s-3.9 9.6-20 9.7c0 0-12.6 22.6-10.5 38.5 2 15.8 11.4 19.5 11.5 28.6.3 9.1-8.6 34.6-8.6 34.6 8.4 6.2 24.9-3.5 30.9-8-4.4-12.6-19.4-38.8-22.3-46.9-1.8-5.2-3-9.5-3-13.2 0-10.5 9.1-27 22-43.3Z"/><path fill="#99C6C4" d="M237 125.5s-10.6 49.7 5.7 52c16.3 2.2 35-32.9 40.3-46 5.4-13-13.2-18.3-13.2-18.3L250 148.8l3.3-24.2-16.4.9Z"/><path fill="#8EADAA" d="M284 133.5s-8.2 18.2-9.9 21.5l11.8-12-2-9.5Z"/><path fill="#EFA689" d="M233.3 104.2c-1.4 0-4.1-.3-5.3.6-1.2 1-2.4 2-3.7 4.7-2.7 5 4.3 9.2 5 15.8 1.6.2 5.8 0 7.4 0 2.8.2 1.5.2 4-1 .7-4.2-.4-8.6-1.3-12.7l-1-2.4c-.3-.7-1-1.2-1.5-2s-.8-1.6-.4-2.4"/><path fill="#EFAB95" d="M247.6 97.7s.1-4-1.6-3.5c-1.6.3-3.6 6.3-3.6 6.3l1 6.6 2.2 1.6 1.7-3.3.3-7.7Z"/><path fill="#FBBB9D" d="m237 125.5 12.6-.7s2.2-13.2 2.2-15.7-1.4-8.4-1.4-12.7c-2.2-1.6-4.2 2-4 4.3l.5 4.4s-2.5-10.8-6.3-10.3c-1.9.2-3 3.5-3 3.5s-1.5-1.4-3-.2c-1.3 1-.9 2.8-.9 2.8s-1.4-1.4-2.8-.5c-.7.3-1.4 2.2-1 3.1-2.4-.3-2.8 2.2-2.8 2.2s1.7.9 2.1 3.8c0 7.3 7.7 16 7.7 16Z"/><path fill="#8EADAA" d="M252 174.7s10.5-6.6 15.2-13.6c0 0-6.8 15.6-15.3 19.3v-5.7Z"/><path fill="#EFEFEF" d="M269 176.3s-3.3 19.5-5.8 27.4l10.6-3.3-4.8-24.1Z"/><path fill="#8EADAA" d="M278 172.9s4.5 13.8 5.7 24.2l4-1.5 6.5-2.6-16.2-20Z"/><path fill="#FBBB9D" d="M257.5 105s-5.6 15.8-.4 16.7c5.1.8 20-25 20-25l-19.6 8.4Z"/></g></svg>